# xmcd
#
# Track frame offsets: 
#        150
#        15181
#        31259
#        46027
#        61096
#        76493
#        91851
#        108008
#        122363
#        137468
#        149864
#        163970
#        177455
#        191769
#        207323
#        219558
#        232667
#        245051
#        257759
#        271223
#        283782
#
# Disc length: 3936 seconds
#
# Revision: 0
# Processed by: cddbd v1.5.2PL0 Copyright (c) Steve Scherf et al.
# Submitted via: ExactAudioCopy v0.99pb4
#
DISCID=220f5e15
DTITLE=Various Artist - Country Blues Collector's Items (1930-1941)
DYEAR=1900
DGENRE=Blues
TTITLE0=Mistreatment Blues - Tommy Griffin
TTITLE1=Yo Yo Mama Blues - Tommy Griffin
TTITLE2=Ball Playing Blues - Tommy Griffin
TTITLE3=Bell Tolling Blues - Tommy Griffin
TTITLE4=Young Heifer Blues - Tommy Griffin
TTITLE5=Hey Hey Blues - Tommy Griffin
TTITLE6=Dying Sinner Blues Part 2 - Tommy Griffin
TTITLE7=Mistreatin' Papa - Tommy Griffin
TTITLE8=Miserable Life Blues - Tommy Griffin
TTITLE9=Snake Hipping Blues - Tommy Griffin
TTITLE10=Little Tommy Blues - Tommy Griffin
TTITLE11=On My Way Blues - Tommy Griffin
TTITLE12=Dream Book Blues - Tommy Griffin
TTITLE13=Howling Man Blues - One Arm Slim
TTITLE14=Bootin' That Thing - One Arm Slim
TTITLE15=Crap Shootin' Blues - One Arm Slim
TTITLE16=Where Did You Stay Last Night? - One Arm Slim
TTITLE17=Sweet Man Blues - Frank Edwards
TTITLE18=Three Women Blues - Frank Edwards
TTITLE19=Terraplane Blues - Frank Edwards
TTITLE20=We Got to Get Together - Frank Edwards
EXTD=
EXTT0=
EXTT1=
EXTT2=
EXTT3=
EXTT4=
EXTT5=
EXTT6=
EXTT7=
EXTT8=
EXTT9=
EXTT10=
EXTT11=
EXTT12=
EXTT13=
EXTT14=
EXTT15=
EXTT16=
EXTT17=
EXTT18=
EXTT19=
EXTT20=
PLAYORDER=
